<svg width="20" height="18" viewBox="0 0 20 18" fill="none" xmlns="http://www.w3.org/2000/svg">
<path d="M1.17858 0.273777C0.657359 0.503035 0.25672 0.999758 0.0739043 1.64932C0.0038897 1.90246 0 2.14127 0 8.77541C0 15.4478 0.0038897 15.6436 0.0739043 15.9063C0.25672 16.5606 0.661249 17.0573 1.19803 17.2818C1.40807 17.3678 1.64534 17.3726 9.95763 17.3726C18.2699 17.3726 18.5072 17.3678 18.7172 17.2818C19.254 17.0573 19.6585 16.5606 19.8413 15.9063C19.9114 15.6436 19.9153 15.4478 19.9153 8.77541C19.9153 2.10306 19.9114 1.90724 19.8413 1.64454C19.6585 0.990206 19.254 0.493481 18.7172 0.269001C18.5072 0.183029 18.2738 0.178253 9.94207 0.183029C1.6998 0.183029 1.37306 0.187805 1.17858 0.273777ZM14.4424 5.81416C11.1829 9.79751 10.9962 10.0172 10.7278 10.1796C10.3972 10.3802 10.0665 10.4471 9.71646 10.3898C9.56866 10.3659 9.35861 10.2847 9.18747 10.1796C8.91908 10.0172 8.73237 9.79751 5.47281 5.81416L2.04209 1.61589H9.95763H17.8732L14.4424 5.81416ZM3.92859 6.02432L6.16517 8.77541L3.6641 11.8465L1.16691 14.9128V8.80406V2.70008L1.43141 2.98666C1.57533 3.14905 2.69945 4.51504 3.92859 6.02432ZM18.7483 8.80884V14.9128L16.2512 11.8417L13.7501 8.77541L16.2239 5.74252C17.5853 4.07563 18.7094 2.70964 18.7211 2.70964C18.7367 2.70964 18.7483 5.45595 18.7483 8.80884ZM7.42932 10.3324C8.39008 11.5217 8.9852 11.8895 9.95763 11.8895C10.4827 11.8895 10.8523 11.7844 11.2723 11.5265C11.6185 11.3116 11.8869 11.0489 12.4354 10.385L12.871 9.8596L13.2522 10.2942C13.4622 10.533 14.5864 11.899 15.7533 13.3319L17.8732 15.9397H9.95763H2.04209L4.51594 12.9068C5.87733 11.2399 7.00924 9.87393 7.02868 9.87393C7.04424 9.87393 7.22706 10.0793 7.42932 10.3324Z" fill="#565655"/>
</svg>
