<svg width="20" height="17" viewBox="0 0 20 17" fill="none" xmlns="http://www.w3.org/2000/svg">
<path d="M1.17858 0.136765C0.657359 0.360729 0.25672 0.845987 0.0739043 1.48055C0.0038897 1.72785 0 1.96115 0 8.44213C0 14.9604 0.0038897 15.1518 0.0739043 15.4084C0.25672 16.0476 0.661249 16.5329 1.19803 16.7522C1.40807 16.8362 1.64534 16.8408 9.95763 16.8408C18.2699 16.8408 18.5072 16.8362 18.7172 16.7522C19.254 16.5329 19.6585 16.0476 19.8413 15.4084C19.9114 15.1518 19.9153 14.9604 19.9153 8.44213C19.9153 1.92382 19.9114 1.73252 19.8413 1.47589C19.6585 0.836655 19.254 0.351398 18.7172 0.132099C18.5072 0.0481129 18.2738 0.0434456 9.94207 0.0481129C1.6998 0.0481129 1.37306 0.0527782 1.17858 0.136765ZM14.4424 5.54925C11.1829 9.44064 10.9962 9.65528 10.7278 9.81392C10.3972 10.0099 10.0665 10.0752 9.71646 10.0192C9.56866 9.99589 9.35861 9.91657 9.18747 9.81392C8.91908 9.65528 8.73237 9.44064 5.47281 5.54925L2.04209 1.44789H9.95763H17.8732L14.4424 5.54925ZM3.92859 5.75455L6.16517 8.44213L3.6641 11.4423L1.16691 14.4379V8.47013V2.50706L1.43141 2.78702C1.57533 2.94566 2.69945 4.28012 3.92859 5.75455ZM18.7483 8.47479V14.4379L16.2512 11.4377L13.7501 8.44213L16.2239 5.47926C17.5853 3.85085 18.7094 2.51639 18.7211 2.51639C18.7367 2.51639 18.7483 5.19931 18.7483 8.47479ZM7.42932 9.96323C8.39008 11.125 8.9852 11.4843 9.95763 11.4843C10.4827 11.4843 10.8523 11.3817 11.2723 11.1297C11.6185 10.9197 11.8869 10.6631 12.4354 10.0146L12.871 9.5013L13.2522 9.9259C13.4622 10.1592 14.5864 11.4937 15.7533 12.8934L17.8732 15.441H9.95763H2.04209L4.51594 12.4782C5.87733 10.8498 7.00924 9.5153 7.02868 9.5153C7.04424 9.5153 7.22706 9.71593 7.42932 9.96323Z" fill="#565655"/>
</svg>
