<svg width="24" height="24" viewBox="0 0 24 24" fill="none" xmlns="http://www.w3.org/2000/svg">
<path d="M11.2125 0.406593C9.32349 0.569092 7.32779 1.27495 5.73833 2.33628C3.02154 4.14917 1.22896 6.93706 0.665291 10.2226C0.507869 11.1417 0.507869 12.5789 0.670369 13.4878C1.12232 16.0472 2.23443 18.2003 4.02701 19.9625C5.40318 21.3234 7.277 22.4152 9.05435 22.8875L9.51646 23.0144L9.50122 22.598L9.48599 22.1816L8.59732 22.1765C7.8813 22.1714 7.63247 22.146 7.31763 22.0648C6.4899 21.8414 6.19029 21.6078 5.84497 20.9171C5.3524 19.932 5.20513 19.7187 4.62623 19.1601L4.07779 18.6269V18.307C4.07779 17.9921 4.07779 17.9871 4.25552 17.9109C4.67701 17.7382 5.45396 17.8855 5.99732 18.246C6.23091 18.4035 6.36294 18.5457 6.57115 18.8656C6.90122 19.3683 7.40904 19.9015 7.75943 20.1046C7.98794 20.2367 8.05904 20.2519 8.44497 20.2519C8.70903 20.2519 8.98833 20.2164 9.16607 20.1605L9.45044 20.0742L9.56724 19.7289C9.62817 19.541 9.72974 19.282 9.79575 19.155C9.92271 18.9011 9.91255 18.8554 9.73482 18.8554C9.46568 18.8554 8.38404 18.5355 7.95239 18.3273C6.33247 17.5453 5.52505 16.4484 5.1899 14.5898C5.14927 14.3511 5.12388 13.823 5.12388 13.1933C5.12388 12.325 5.13912 12.1167 5.23052 11.746C5.36763 11.1925 5.63169 10.573 5.92622 10.1007L6.15474 9.73003L6.07857 9.30347C5.94654 8.623 6.06841 7.39917 6.32232 6.80503L6.42388 6.56636H6.73872C7.59693 6.56636 8.60747 6.91675 9.50122 7.52612L9.79068 7.72417L10.4254 7.59214C11.0297 7.46519 11.1364 7.46011 12.5836 7.46011C14.0208 7.46519 14.1426 7.47026 14.6911 7.59214L15.275 7.71909L15.4782 7.58198C16.3973 6.96245 17.4739 6.56636 18.2661 6.56636C18.5555 6.56636 18.6063 6.58159 18.6977 6.69331C18.9821 7.06401 19.1446 8.8312 18.9618 9.61831C18.9262 9.77065 18.9364 9.81636 19.0329 9.90776C19.2004 10.0703 19.6981 11.1011 19.8301 11.5683C19.9368 11.939 19.9469 12.071 19.9418 13.1171C19.9418 13.9398 19.9164 14.3867 19.8555 14.7167C19.6829 15.6664 19.3325 16.4687 18.7739 17.1746C18.2153 17.8804 17.3063 18.3781 15.925 18.7335C15.5442 18.83 15.2192 18.9164 15.2141 18.9265C15.204 18.9367 15.27 19.0992 15.3614 19.2921L15.529 19.6425L15.5543 21.1761L15.5797 22.7097L16.1129 22.4914C19.9875 20.9273 22.6789 17.53 23.3594 13.3457C23.4914 12.5281 23.4813 11.0656 23.334 10.2226C22.7704 6.93706 20.9778 4.14917 18.2559 2.3312C16.1688 0.939796 13.4977 0.208546 11.2125 0.406593Z" fill="#565655"/>
</svg>
