<svg width="22" height="22" viewBox="0 0 22 22" fill="none" xmlns="http://www.w3.org/2000/svg">
<path d="M0.992728 0.691931C0.296728 1.24393 0.320728 0.799931 0.320728 10.9999C0.320728 21.5839 0.272728 21.0319 1.20873 21.4519C1.67673 21.6679 2.20473 21.6799 10.9407 21.6799C19.6767 21.6799 20.2047 21.6679 20.6727 21.4519C21.6087 21.0319 21.5607 21.5839 21.5607 10.9999C21.5607 0.799931 21.5847 1.24393 20.8887 0.691931C20.5647 0.439932 20.5167 0.439932 10.9407 0.439932C1.36473 0.439932 1.31673 0.439932 0.992728 0.691931ZM6.18873 3.76393C6.92073 4.32793 7.18473 5.53993 6.70473 6.18793C5.78073 7.44793 4.02873 7.29193 3.50073 5.91193C3.14073 4.98793 3.54873 4.01593 4.46073 3.60793C4.92873 3.39193 5.78073 3.46393 6.18873 3.76393ZM16.5567 8.52793C17.2767 8.83993 17.8887 9.55993 18.2007 10.4839C18.4767 11.2519 18.4887 11.4919 18.5367 14.9239L18.5847 18.5599H17.0247H15.4767L15.4167 15.4639C15.3567 12.1039 15.2847 11.7559 14.6607 11.2639C13.9407 10.6999 12.6207 11.0239 12.1647 11.8879C11.9247 12.3559 11.9007 12.5599 11.8647 15.4639L11.8167 18.5599H10.2687H8.72073V13.5199V8.47993H10.2207H11.7207V9.16393V9.85993L12.0327 9.46393C12.3927 9.00793 13.0767 8.55193 13.6527 8.37193C14.2167 8.19193 16.0047 8.29993 16.5567 8.52793ZM6.76473 13.4839L6.74073 18.4999L5.15673 18.5359L3.56073 18.5719V13.5199V8.47993H5.18073H6.78873L6.76473 13.4839Z" fill="#565655"/>
</svg>
