<svg width="18" height="18" viewBox="0 0 18 18" fill="none" xmlns="http://www.w3.org/2000/svg">
<path d="M1.28697 1.28697C0.943154 1.63079 0.75 2.0971 0.75 2.58333V3.5C0.75 11.0937 6.90633 17.25 14.5 17.25H15.4167C15.9029 17.25 16.3692 17.0568 16.713 16.713C17.0568 16.3692 17.25 15.9029 17.25 15.4167V12.4109C17.25 12.2184 17.1895 12.0308 17.077 11.8747C16.9644 11.7186 16.8056 11.6018 16.623 11.541L12.5044 10.1678C12.2951 10.0983 12.0677 10.1065 11.864 10.191C11.6603 10.2755 11.4938 10.4307 11.3953 10.628L10.3594 12.6969C8.11492 11.6828 6.31721 9.88508 5.30308 7.64058L7.372 6.60475C7.56931 6.50617 7.72447 6.33974 7.80899 6.13601C7.89352 5.93227 7.90174 5.70489 7.83217 5.49558L6.459 1.377C6.39823 1.19454 6.28161 1.03582 6.12566 0.923296C5.96971 0.810772 5.78231 0.750146 5.59 0.75H2.58333C2.0971 0.75 1.63079 0.943154 1.28697 1.28697Z" stroke="#565655" stroke-width="1.25" stroke-linecap="round" stroke-linejoin="round"/>
</svg>
