<svg width="22" height="22" viewBox="0 0 22 22" fill="none" xmlns="http://www.w3.org/2000/svg">
<path d="M3.28697 3.28697C2.94315 3.63079 2.75 4.0971 2.75 4.58333V5.5C2.75 13.0937 8.90633 19.25 16.5 19.25H17.4167C17.9029 19.25 18.3692 19.0568 18.713 18.713C19.0568 18.3692 19.25 17.9029 19.25 17.4167V14.4109C19.25 14.2184 19.1895 14.0308 19.077 13.8747C18.9644 13.7186 18.8056 13.6018 18.623 13.541L14.5044 12.1678C14.2951 12.0983 14.0677 12.1065 13.864 12.191C13.6603 12.2755 13.4938 12.4307 13.3953 12.628L12.3594 14.6969C10.1149 13.6828 8.31721 11.8851 7.30308 9.64058L9.372 8.60475C9.56931 8.50617 9.72447 8.33974 9.80899 8.13601C9.89352 7.93227 9.90174 7.70489 9.83217 7.49558L8.459 3.377C8.39823 3.19454 8.28161 3.03582 8.12566 2.9233C7.96971 2.81077 7.78231 2.75015 7.59 2.75H4.58333C4.0971 2.75 3.63079 2.94315 3.28697 3.28697Z" stroke="#565655" stroke-width="1.25" stroke-linecap="round" stroke-linejoin="round"/>
</svg>
